<svg version="1" xmlns="http://www.w3.org/2000/svg" width="458.667" height="458.667" viewBox="0 0 344.000000 344.000000"><path d="M19.6 29.5c-2 2-2.1 6.9-.2 8.5.8.6 2.9 1.4 4.6 1.6 1.7.3 11 3.3 20.8 6.6 9.7 3.3 30.1 10.2 45.2 15.3 15.1 5.2 41.5 14.2 58.5 20 17.1 5.9 35.3 12.2 40.5 14 5.3 1.8 11.1 4 13 5 5.7 2.9 97.1 96.1 100.4 102.3 1.9 3.5 2 6.1 2.1 43.6 0 44.5-.1 45.5-6.7 49.6-6.6 4.2-17.4.6-21.3-7.1-1.5-2.8-2-8.2-3-35.6-.3-8.2 0-11.3.8-11.4 5.4-.3 7.7-1.8 7.7-4.9 0-.8-4.2-6.5-9.3-12.6-5-6.1-10.8-13-12.7-15.4-1.9-2.4-3.9-4.8-4.5-5.4-.5-.6-3.5-4-6.5-7.6-3-3.6-6.7-7.8-8.2-9.5-1.4-1.6-3.6-4.1-4.8-5.5-4.5-5.2-17.7-19.6-22.6-24.6-10.7-10.9-17.2-9.8-31.1 5.4-4.8 5.3-11 11.9-13.8 14.7-2.7 2.8-9.7 10.2-15.5 16.4-39.9 43.1-37.4 40.1-36.5 43.2.6 1.8 1.2 2 5.5 1.4l4.7-.7-.3 8.9c-.2 4.8-.6 16.2-.8 25.3-.4 16.8-.9 19.9-4.2 23.6-5.8 6.3-11.2 7-19 2.2-6.9-4.1-9.1-8.3-9.3-17.3-.3-8.2-.9-16.2-2.6-33.5-.2-2.5-.7-7.2-1-10.5-.9-9.6-1.5-14.5-2.6-21.7-.6-3.7-1-6.9-1-7 .1-.2-.8-3-1.9-6.3-1.2-3.3-2.3-6.7-2.5-7.5-.3-1.5-6.4-22.1-11.6-39.3-3.8-12.3-4.6-12.9-17.9-14.2-3-.4-6.2-.8-7-1-.8-.2-4-.7-7-1-3-.3-6.6-.8-8-1-8.6-1.4-13.2-1.9-18.7-1.9-5.1-.1-6.6.3-8.4 2l-2.1 2.1 3.4 2.6c3.2 2.5 4.9 2.9 15.3 4.2 2.8.4 6.1.8 7.5 1.1 1.4.2 5 .6 8 1 3 .3 6.4.8 7.5 1 1.1.3 4 .7 6.5 1 7.7.9 9.3 2.2 11.7 9.4 3 9.2 15.1 51.3 16.8 58.5 1.5 6.6 2.3 13.4 3 27 2.4 43.8 2.3 43.1 4.5 47.8 2.8 5.9 9.2 12.2 15.7 15.4 11.7 5.7 24.5 1.3 31.6-11 3.6-6.1 3.6-6.2 5.2-46.2.7-18.2 1.3-24.9 2.4-27.6 1-2.7 1.5-3.2 24.6-27.4 8.9-9.4 19.9-20.9 24.5-25.8 6.3-6.6 8.9-8.7 10.9-8.7 3.3.1 4 .7 13.1 11 4.1 4.7 7.7 8.7 8 9 .3.3 7.7 8.6 16.5 18.5s16.2 18.2 16.5 18.5c2 1.7 5.9 8 6.8 11 .6 1.9 1.4 11.4 1.7 21 1.3 37.2 1.3 37.7 3.6 43 2.7 6.3 9.4 12.3 16.1 14.6 5.9 1.9 15 1.4 19.9-1.1 5.1-2.7 10.7-9.1 12-13.7.9-3 1.3-16.2 1.3-44.7.1-42.2-.2-46-4.3-53.7-2.5-4.7-1.9-5.5 6-8.6 11.8-4.5 18-13.4 17.5-24.9-.3-8.3-3.1-13.4-11.8-21.3-19.7-18-25.8-24-25.1-24.7.4-.4 5.6-1.9 11.4-3.3 5.8-1.4 13-3.6 16-5 6.7-3 14.1-9.4 16.3-14 4.4-9.4-1.1-21.9-12.4-27.8l-4.5-2.3-99-.1c-85.7-.2-99.7-.4-104-1.7-2.7-.8-9.7-3.2-15.5-5.2-33.6-11.9-73.1-24.9-78.9-26-1.3-.2-3.1-.7-4.1-1-1-.3-2.5.1-3.4 1zm304.6 45.2c4.3 1.7 7.6 6.6 7.2 10.7-.6 6.2-9.1 11.8-22.9 15.2-14.3 3.5-18.4 4.4-20.4 4.4-1.3 0-4.1-1.6-6.4-3.6-4.2-3.9-10.3-6.9-15.4-7.9-3.2-.5-11.1-.9-39-2-16.9-.7-21.3-1.7-45.8-10.3-16.4-5.8-19.5-7-19.5-7.6 0-.2 35.7-.4 79.3-.4 67 .1 79.8.3 82.9 1.5zM245 103.4c17.5.6 20.9 1 24.6 2.9 1.9 1 8.5 6.9 23.8 21.2 29.1 27.1 30.6 28.8 30.6 35.3 0 5.8-3.8 9.4-16 15.2-9.1 4.4-6 6.7-46.8-34.9-20.4-20.7-37.4-38-37.8-38.4-1.1-1.1 1.4-2.5 3.5-2.1.9.1 9 .5 18.1.8z"/><path d="M192.7 253.1c-11.2 1.7-21.5 9.2-26.7 19.3-9.5 18.7-2.5 40.7 16 50.1 10.7 5.4 22.2 5.3 33.5-.2 12-5.8 19.4-17.3 20.1-31.1 1.1-23.4-19.5-41.6-42.9-38.1zm15 11.2c17.9 6.6 23.4 28.6 10.9 43.4-1.5 1.8-5 4.3-7.9 5.7-11.8 5.8-24.7 3-32.7-7-4.8-6-6.2-10.6-5.7-18.4.7-11.7 7.7-20.7 18.7-24.1 3.8-1.1 13.1-.9 16.7.4z"/></svg>